<svg class="icon" style="width: 1em; height: 1em;vertical-align: middle;fill: currentColor;overflow: hidden;"
     viewBox="0 0 1024 1024" version="1.1" xmlns="http://www.w3.org/2000/svg">
    <path d="M782.406163 312.30957h-60.157156v-30.081896c0-116.105481-94.447881-210.553363-210.553363-210.553363-116.107378 0-210.553363 94.447881-210.553363 210.553363v30.081896h-60.162844c-66.174104 0-120.314311 54.140207-120.314311 120.314311v360.949571c0 66.175052 54.140207 120.320948 120.314311 120.320948h541.426726c66.176 0 120.320948-54.144948 120.320948-120.320948V432.623881c0-66.174104-54.144948-120.314311-120.320948-120.314311z m-421.106726-30.081896c0-83.018904 67.377304-150.396207 150.396207-150.396207s150.396207 67.377304 150.396208 150.396207v30.081896H361.299437v-30.081896z m481.263882 511.345778c0 33.088474-27.070578 60.162844-60.157156 60.162844H240.979437c-33.087526 0-60.157156-27.07437-60.157156-60.162844V432.623881c0-33.087526 27.070578-60.157156 60.157156-60.157155h60.162844v90.239052c0 16.8448 13.231407 30.075259 30.07526 30.075259s30.081896-13.231407 30.081896-30.075259v-90.239052h300.792415v90.239052c0 16.8448 13.231407 30.075259 30.076207 30.075259s30.081896-13.231407 30.081897-30.075259v-90.239052h60.157155c33.087526 0 60.157156 27.070578 60.157156 60.157155v360.949571z m0 0"></path>
</svg>
