<svg class="icon" style="width: 1em; height: 1em;vertical-align: middle;fill: currentColor;overflow: hidden;"
     viewBox="0 0 1024 1024" version="1.1" xmlns="http://www.w3.org/2000/svg">
    <path d="M868.834607 419.614341V270.934281c0-17.840356-11.898311-29.738667-29.738666-29.738666H690.415881v29.738666c0 17.840356-11.891674 29.738667-29.738666 29.738667-17.840356 0-29.732978-11.898311-29.732978-29.738667v-29.738666H393.054815v29.738666c0 17.840356-11.891674 29.738667-29.738667 29.738667-17.840356 0-29.732978-11.898311-29.732978-29.738667v-29.738666h-148.679111c-17.841304 0-29.738667 11.898311-29.738666 29.738666v148.68006h713.669214z m0 59.470696H155.165393v267.628089c0 17.840356 11.896415 29.732978 29.738666 29.732978h654.19283c17.840356 0 29.738667-11.891674 29.738667-29.732978V479.085037zM690.415881 181.724919h148.68006c50.551467 0 89.209363 38.657896 89.209363 89.209362V746.714074c0 50.550519-38.657896 89.203674-89.209363 89.203674H184.904059c-50.551467 0-89.209363-38.653156-89.209363-89.203674V270.934281c0-50.551467 38.657896-89.209363 89.209363-89.209362h148.68006v-29.732978c0-17.846044 11.891674-29.738667 29.732977-29.738667 17.846044 0 29.738667 11.892622 29.738667 29.738667v29.732978h237.889422v-29.732978c0-17.846044 11.892622-29.738667 29.732978-29.738667 17.846044 0 29.738667 11.892622 29.738667 29.738667v29.732978z m0 0"></path>
</svg>
