<svg class="icon" style="width: 1em; height: 1em;vertical-align: middle;fill: currentColor;overflow: hidden;"
     viewBox="0 0 1024 1024" version="1.1" xmlns="http://www.w3.org/2000/svg">
    <path d="M491.369244 824.86803c-190.6688 0-345.782044-155.136-345.782044-345.782045 0-190.696296 155.114193-345.782044 345.782044-345.782044 190.673541 0 345.782044 155.086696 345.782045 345.782044 0 190.645096-155.109452 345.782044-345.782045 345.782045m0-741.859556C272.960474 83.008474 95.291733 260.626963 95.291733 479.085037c0 218.386015 177.667793 396.076563 396.076563 396.076563s396.076563-177.690548 396.076563-396.076563c0.000948-218.430578-177.667793-396.076563-396.075615-396.076563M513.022104 461.78323V235.101867c0.023704-0.249363 0.176356-0.453215 0.176355-0.702578 0.555615-13.986133-10.333867-25.774459-24.320948-26.330074-13.982341-0.556563-25.770667 10.332919-26.32723 24.315259 0 0.403911 0.177304 0.70637 0.177304 1.082785v248.335171c-0.430459 2.011022-1.082785 3.971793-0.982281 6.111763 0.502519 12.798104 10.510222 22.582993 22.908207 23.78714 0.78317 0.100504 1.435496 0.502519 2.264178 0.552771 0.177304 0 0.326163-0.100504 0.529067-0.100504 0.199111 0 0.352711 0.100504 0.55277 0.100504 0.252207-0.023704 0.452267-0.172563 0.705422-0.172563h251.853748c0.376415 0 0.678874 0.172563 1.055289 0.172563 13.764267-0.828681 24.339911-12.512711 23.803259-26.296889-0.541393-13.779437-11.998815-24.596859-25.790577-24.351289-0.249363 0-0.475022 0.1536-0.729126 0.176355H513.022104z m0 0"></path>
</svg>
