<svg class="icon" style="width: 1em; height: 1em;vertical-align: middle;fill: currentColor;overflow: hidden;"
     viewBox="0 0 1024 1024" version="1.1" xmlns="http://www.w3.org/2000/svg">
  <path d="M515.316622 73.212207c-123.543704 0-224.433304 100.8896-224.433303 224.433304 0 123.538963 100.8896 224.433304 224.433303 224.433304 123.539911 0 224.434252-100.894341 224.434252-224.433304 0-123.543704-100.894341-224.433304-224.434252-224.433304z m0 397.389749c-94.715259 0-172.956444-78.240237-172.956444-172.956445s78.241185-172.956444 172.956444-172.956444c94.711467 0 172.957393 78.240237 172.957393 172.956444s-78.245926 172.956444-172.957393 172.956445zM607.973452 536.160711H422.660741c-158.545541 0-288.263585 131.777422-288.263585 294.441719v18.529659c0 65.888711 127.657719 65.888711 288.263585 65.888711h185.312711c158.5408 0 288.258844-2.059378 288.258844-65.888711v-18.529659c0-162.664296-129.718044-294.441719-288.258844-294.441719z m234.727348 296.501096v14.410904c-30.887822 20.590933-168.838637 20.590933-236.786726 20.590933H420.601363c-78.241185 0-207.963022 0-236.786726-18.531555V834.721185c2.059378-137.955556 109.128059-247.083615 238.846104-247.083615h185.312711c61.769956 0 121.480533 24.709689 164.718933 70.007467 45.298726 45.298726 72.067793 107.068681 70.008415 175.01677z"></path>
</svg>
