<svg class="icon" style="width: 1em; height: 1em;vertical-align: middle;fill: currentColor;overflow: hidden;"
     viewBox="0 0 1024 1024" version="1.1" xmlns="http://www.w3.org/2000/svg">
    <path d="M132.396563 540.397037L472.597807 718.976c31.083141 15.70323 44.517452 15.70323 78.184297 0L902.808652 528.545185c17.371022-8.631941 23.698015-37.361778 23.698015-59.305718-57.61517 29.898904-414.829985 215.758696-414.829986 215.758696S142.470637 491.009896 96.833422 469.234726c0 21.46323 16.840059 60.598044 35.563141 71.162311zM132.727467 726.916741l340.201244 178.578963c31.083141 15.70323 44.517452 15.70323 78.184296 0L903.138607 715.064889c17.371022-8.631941 23.698015-37.361778 23.698015-59.305719-57.61517 29.898904-414.829985 215.758696-414.829985 215.758697S142.800593 677.5296 97.163378 655.75443c0 21.46323 16.841007 60.598044 35.564089 71.162311zM902.808652 289.409896L550.804859 90.964385c-27.612919-17.447822-47.106844-16.626726-78.188089 0l-352.017066 198.513778c-26.8288 18.441481-27.681185 67.761304 0 83.44557L472.597807 541.933985c31.083141 15.661511 44.517452 15.661511 78.184297 0l352.0256-169.010252c25.9072-12.931793 26.755793-67.756563 0.000948-83.513837z m-51.483496 59.767467L543.09357 498.182637c-26.896119 12.681481-37.627259 12.681481-62.460207 0L171.79117 349.177363c-22.116504-12.698548-21.434785-19.047348 0-33.977837l308.85926-182.15917c24.829156-13.461807 40.400593-14.124563 62.461155 0l296.887941 170.835437c21.375052 12.757333 32.019911 34.83117 11.32563 45.30157z
"></path>
</svg>
